<?xml version="1.0" encoding="UTF-8" standalone="no"?>
<!-- Created with Inkscape (http://www.inkscape.org/) -->

<svg
   xmlns:dc="http://purl.org/dc/elements/1.1/"
   xmlns:cc="http://creativecommons.org/ns#"
   xmlns:rdf="http://www.w3.org/1999/02/22-rdf-syntax-ns#"
   xmlns:svg="http://www.w3.org/2000/svg"
   xmlns="http://www.w3.org/2000/svg"
   xmlns:sodipodi="http://sodipodi.sourceforge.net/DTD/sodipodi-0.dtd"
   xmlns:inkscape="http://www.inkscape.org/namespaces/inkscape"
   width="185"
   height="63"
   viewBox="0 0 185 63.000001"
   id="svg2"
   version="1.1"
   inkscape:version="0.91 r13725"
   sodipodi:docname="logo.svg">
  <defs
     id="defs4">
    <clipPath
       id="clipPath4152"
       clipPathUnits="userSpaceOnUse">
      <path
         inkscape:connector-curvature="0"
         id="path4154"
         d="m 0,141.333 385.333,0 L 385.333,0 0,0 0,141.333 Z" />
    </clipPath>
  </defs>
  <sodipodi:namedview
     id="base"
     pagecolor="#ffffff"
     bordercolor="#666666"
     borderopacity="1.0"
     inkscape:pageopacity="0.0"
     inkscape:pageshadow="2"
     inkscape:zoom="6.7224477"
     inkscape:cx="52.13739"
     inkscape:cy="16.253712"
     inkscape:document-units="px"
     inkscape:current-layer="g4148"
     showgrid="false"
     units="px"
     inkscape:window-width="2560"
     inkscape:window-height="1361"
     inkscape:window-x="-9"
     inkscape:window-y="-9"
     inkscape:window-maximized="1" />
  <metadata
     id="metadata7">
    <rdf:RDF>
      <cc:Work
         rdf:about="">
        <dc:format>image/svg+xml</dc:format>
        <dc:type
           rdf:resource="http://purl.org/dc/dcmitype/StillImage" />
        <dc:title></dc:title>
      </cc:Work>
    </rdf:RDF>
  </metadata>
  <g
     inkscape:label="Livello 1"
     inkscape:groupmode="layer"
     id="layer1"
     transform="translate(0,-989.3622)">
    <g
       transform="matrix(0.34451268,0,0,-0.34488567,-3.5960233,1055.2096)"
       inkscape:label="Beghelli_logo_CYAN"
       id="g4144">
      <path
         inkscape:connector-curvature="0"
         id="path4146"
         style="fill:#ffffff;fill-opacity:1;fill-rule:nonzero;stroke:none"
         d="m 540.9813,14.68786 -524.097665,0 0,169.80405 524.097665,0 0,-169.80405 z M 10.438,8.256 l 536.99039,0 0,182.66923 -536.99039,0 0,-182.66923 z" />
      <g
         id="g4148">
        <g
           clip-path="url(#clipPath4152)"
           id="g4150"
           style="fill:#ffffff"
           transform="matrix(1.468254,0,0,1.4651163,-4.8876349,-3.8399999)">
          <g
             transform="translate(123.4352,60.6084)"
             id="g4156"
             style="fill:#ffffff">
            <path
               inkscape:connector-curvature="0"
               id="path4158"
               style="fill:#ffffff;fill-opacity:1;fill-rule:nonzero;stroke:none"
               d="m 0,0 -0.141,-0.283 c -0.85,-1.696 -1.687,-2.885 -2.635,-3.739 -1.852,-1.659 -4.169,-2.466 -7.075,-2.466 -2.868,0.054 -5.185,0.72 -7.081,2.036 -3.144,2.175 -4.817,5.781 -5.109,11.012 l 36.105,0 C 14.288,4.229 14.687,2.04 15.259,0 L 0,0 Z m -58.093,31.541 c -2.04,-1.19 -4.696,-1.794 -7.895,-1.794 l -18.282,0 0,15.849 16.299,0 c 3.788,-0.054 6.72,-0.433 8.964,-1.159 2.575,-1.103 3.827,-3.256 3.827,-6.573 -0.051,-3.106 -1.006,-5.175 -2.913,-6.323 m -26.177,-15.484 18.537,0 c 3.335,-0.05 5.796,-0.46 7.521,-1.251 3.124,-1.462 4.642,-3.992 4.642,-7.729 -0.052,-4.561 -1.625,-7.539 -4.806,-9.104 -1.792,-0.871 -4.282,-1.294 -7.612,-1.294 l -18.282,0 0,19.378 z m 65.977,9.156 c 1.803,2.05 4.292,3.047 7.6,3.047 3.107,-0.052 5.575,-1.008 7.554,-2.93 1.969,-1.83 3.104,-4.516 3.38,-7.991 l -21.861,0 c 0.547,3.376 1.638,5.956 3.327,7.874 m 68.942,-1.85 c 2.23,-2.782 3.314,-6.686 3.314,-11.934 0,-5.592 -1.158,-9.684 -3.439,-12.161 -2.362,-2.511 -5.111,-3.732 -8.401,-3.732 -5.037,0 -8.415,2.24 -10.332,6.856 -1.088,2.493 -1.616,5.296 -1.616,8.57 0,3.763 0.5,6.842 1.528,9.409 1.9,4.714 5.258,7.005 10.266,7.005 3.695,0 6.534,-1.312 8.68,-4.013 m 3.425,9.787 c -2.13,3.246 -4.822,5.541 -8.02,6.838 -2.222,0.898 -4.715,1.334 -7.623,1.334 C 30.567,41.267 24.439,38.297 20.219,32.497 18.022,29.512 16.376,26.11 15.313,22.36 14.491,25.32 13.336,27.914 11.807,30.241 9.3,34.1 6.086,36.973 2.248,38.782 c -3.946,1.815 -8.176,2.697 -12.936,2.697 -8.056,-0.057 -14.695,-2.75 -19.734,-8.005 -4.448,-4.728 -6.895,-11.045 -7.439,-19.246 -0.445,1.158 -0.991,2.244 -1.635,3.247 -1.918,2.943 -4.557,5.091 -8.043,6.542 2.144,1.22 3.819,2.547 4.989,3.953 2.456,2.937 3.65,6.73 3.65,11.601 -0.053,4.776 -1.24,8.693 -3.631,11.979 -4.011,5.438 -10.854,8.25 -20.344,8.357 l -37.681,0 0,-77.542 35.199,0 c 4.178,0.058 7.756,0.403 10.943,1.055 3.551,0.761 6.472,2.047 8.927,3.932 2.289,1.737 4.116,3.752 5.583,6.156 1.388,2.217 2.369,4.614 2.93,7.157 1.272,-5.619 3.763,-10.015 7.425,-13.095 5.587,-4.692 12.106,-7.072 19.378,-7.072 8.853,0 15.83,2.836 20.732,8.425 2.893,3.223 4.605,6.317 5.21,9.423 1.096,-3.223 2.659,-6.041 4.677,-8.425 4.444,-5.184 10.445,-7.812 17.841,-7.812 4.947,0.053 8.798,1.19 11.769,3.472 1.346,1.013 2.584,2.36 3.759,4.09 l 0,-1.852 c -0.053,-5.331 -0.629,-9.135 -1.709,-11.296 -1.788,-3.418 -5.139,-5.079 -10.241,-5.079 -3.712,0 -6.236,0.622 -7.724,1.906 -0.837,0.707 -1.463,1.876 -1.86,3.475 l -0.096,0.389 -17.047,0 0.05,-0.558 c 0.535,-5.92 3.093,-10.21 7.818,-13.113 4.724,-2.915 10.605,-4.332 17.978,-4.332 l 0.002,0 c 12.126,0.055 20.443,3.346 24.72,9.78 2.538,3.812 3.771,9.305 3.771,16.793 l 0,54.19 -15.405,0 0,-6.824 z" />
          </g>
          <g
             transform="translate(246.1098,94.4532)"
             id="g4160"
             style="fill:#ffffff">
            <path
               inkscape:connector-curvature="0"
               id="path4162"
               style="fill:#ffffff;fill-opacity:1;fill-rule:nonzero;stroke:none"
               d="m 0,0 c -1.912,2.607 -4.29,4.479 -7.263,5.722 -2.863,1.249 -6.037,1.855 -9.711,1.855 -3.328,-0.048 -6.317,-0.707 -9.135,-2.012 -2.521,-1.148 -4.723,-3.015 -6.7,-5.686 l 0,25.924 -15.759,0 0,-77.282 15.759,0 0,31.133 c 0.05,4.802 0.999,8.354 2.895,10.852 1.987,2.525 4.776,3.753 8.518,3.753 3.616,-0.052 5.984,-1.253 7.246,-3.681 1.008,-1.861 1.498,-4.192 1.498,-7.127 l 0,-34.93 16.129,0 0,33.743 C 3.426,-12.381 3.258,-8.895 2.949,-6.758 2.571,-4.378 1.578,-2.103 0,0" />
          </g>
          <path
             inkscape:connector-curvature="0"
             id="path4164"
             style="fill:#ffffff;fill-opacity:1;fill-rule:nonzero;stroke:none"
             d="m 347.697,106.307 16.029,0 0,14.673 -16.029,0 0,-14.673 z" />
          <path
             inkscape:connector-curvature="0"
             id="path4166"
             style="fill:#ffffff;fill-opacity:1;fill-rule:nonzero;stroke:none"
             d="m 347.697,42.974 16.029,0 0,57.609 -16.029,0 0,-57.609 z" />
          <g
             transform="translate(276.933,88.8686)"
             id="g4168"
             style="fill:#ffffff">
            <path
               inkscape:connector-curvature="0"
               id="path4170"
               style="fill:#ffffff;fill-opacity:1;fill-rule:nonzero;stroke:none"
               d="m 0,0 c 3.11,-0.052 5.577,-1.008 7.549,-2.931 1.969,-1.824 3.108,-4.51 3.389,-7.99 l -21.865,0 c 0.552,3.376 1.642,5.956 3.326,7.874 C -5.797,-0.997 -3.308,0 0,0 m 22.502,1.981 c -2.5,3.853 -5.716,6.726 -9.561,8.54 -3.944,1.815 -8.174,2.698 -12.936,2.698 -8.046,-0.058 -14.684,-2.75 -19.732,-8.005 -5.093,-5.406 -7.57,-12.888 -7.57,-22.875 0,-10.57 2.841,-18.318 8.443,-23.029 5.581,-4.693 12.103,-7.072 19.384,-7.072 8.853,0 15.827,2.836 20.724,8.425 3.238,3.601 4.997,7.039 5.378,10.51 l 0.062,0.567 -15.992,0 -0.142,-0.282 c -0.84,-1.672 -1.704,-2.896 -2.641,-3.74 -1.849,-1.659 -4.164,-2.466 -7.069,-2.466 -2.87,0.054 -5.19,0.719 -7.095,2.035 -3.142,2.178 -4.812,5.784 -5.098,11.013 l 38.697,0 0.005,0.505 c 0.052,4.87 -0.107,8.668 -0.474,11.302 -0.761,4.65 -2.195,8.535 -4.383,11.874" />
          </g>
          <path
             inkscape:connector-curvature="0"
             id="path4172"
             style="fill:#ffffff;fill-opacity:1;fill-rule:nonzero;stroke:none"
             d="m 326.527,42.974 15.819,0 0,77.542 -15.819,0 0,-77.542 z" />
          <path
             inkscape:connector-curvature="0"
             id="path4174"
             style="fill:#ffffff;fill-opacity:1;fill-rule:nonzero;stroke:none"
             d="m 305.254,42.974 15.819,0 0,77.542 -15.819,0 0,-77.542 z" />
        </g>
      </g>
    </g>
  </g>
</svg>
