<?xml version="1.0" encoding="utf-8"?>
<!-- Generator: Adobe Illustrator 21.1.0, SVG Export Plug-In . SVG Version: 6.00 Build 0)  -->
<svg version="1.1" id="Capa_1" xmlns="http://www.w3.org/2000/svg" xmlns:xlink="http://www.w3.org/1999/xlink" x="0px" y="0px"
	 viewBox="0 0 2214.2 594.1" style="enable-background:new 0 0 2214.2 594.1;" xml:space="preserve">
<style type="text/css">
	.st0{fill:#FFFFFF;}
</style>
<path class="st0" d="M2164.8,241.7h3.7V222h11.2l12.8,19.7h4.1l-12.8-19.7c2.8-0.3,5.4-1.5,7.6-3.2c2.2-2.1,3.4-5,3.2-8
	c0.3-3.3-0.8-6.6-3.2-8.9c-3-2.2-6.8-3.3-10.5-3h-16L2164.8,241.7z M2168.5,201.8h11.9c2.6-0.1,5.1,0.6,7.3,1.8
	c2.3,1.4,3.6,4,3.4,6.6c0.2,3-1.6,5.8-4.4,6.9c-2.9,1-6.1,1.5-9.2,1.4h-9.2V201.8z M2178.1,186.9c5.9-0.1,11.6,1.4,16.7,4.4
	c4.8,2.8,8.7,6.8,11.5,11.7c5.7,10.4,5.7,23,0,33.5c-5.6,10.3-16.5,16.6-28.2,16.5c-5.9,0-11.7-1.6-16.7-4.6
	c-4.9-2.9-8.9-7-11.7-11.9c-2.7-4.9-4.1-10.4-4.1-16c0-5.9,1.5-11.8,4.4-17c2.8-4.9,6.8-8.9,11.7-11.7c5-2.9,10.7-4.4,16.5-4.4
	V186.9z M2178.1,183.7c-20-0.1-36.3,16.1-36.3,36.1c-0.1,20,16.1,36.3,36.1,36.3c20,0.1,36.3-16.1,36.3-36.1
	c0-12.8-6.7-24.7-17.8-31.3c-5.6-3.1-11.9-4.7-18.3-4.6V183.7z"/>
<polygon class="st0" points="252.9,112.9 252.9,542.7 146.7,542.7 146.7,112.9 0,112.9 0,19.3 399.4,19.3 399.4,112.9 "/>
<path class="st0" d="M1791.6,492.5l64-55.7c28.6,28.9,67.4,45.4,108,45.8c30.5-1.8,67.4-6.2,68.8-41.3c1.8-55.7-224-7.1-224-144.9
	c0-91.7,82.8-123.3,160.5-123.3c56.9-3.2,112.6,17.3,153.8,56.6l-62.1,59.4c-24.5-27.2-59.7-42.4-96.3-41.5
	c-27.1,0-61.2,8.9-59.4,36c3.7,62.1,223.1-5.5,223.1,155.7c0,87.3-87.3,117.8-166.4,117.8C1891.3,556.2,1840,544.1,1791.6,492.5z"/>
<polygon class="st0" points="1108,166.8 1232.9,542.7 1327.4,542.7 1456,166.8 1357.2,166.8 1282.4,399.9 1208.6,166.8 "/>
<rect x="655.7" y="18.4" class="st0" width="99.7" height="521.8"/>
<path class="st0" d="M1616.2,473c-64.4,0-91.7-42.2-94-94h260.4c14.9-102.2-55.8-197.2-158-212.2c-9.7-1.4-19.5-2.1-29.3-2
	c-98.6,4.8-168,87.6-171.7,186.2c-2.9,108.6,82.7,199,191.3,202c0,0,0.1,0,0.1,0c67.1,5.1,131.6-26.9,168-83.4l-78.4-45.8
	C1687.2,455.9,1652.8,475.1,1616.2,473z M1601.5,242.2c40.6-0.5,74.7,30.2,78.4,70.6h-156.6C1527.1,272.5,1561.1,241.8,1601.5,242.2
	z"/>
<path class="st0" d="M969.5,473c-64.4,0-91.7-42.2-94-94h261.3c14.9-102.2-55.8-197.2-158-212.2c-9.3-1.4-18.7-2-28.1-2
	c-98.6,4.8-168,87.6-171.7,186.2c-3,108.6,82.7,199,191.3,202c0,0,0.1,0,0.1,0c66.5,4.5,130.2-27.4,166.4-83.4l-78.4-45.8
	C1040.9,456.1,1006.2,475.3,969.5,473z M954.8,242.2c40.6-0.5,74.7,30.2,78.4,70.6H876.6C880.3,272.5,914.4,241.8,954.8,242.2z"/>
<path class="st0" d="M466.5,473c-64.4,0-91.7-42.2-94-94h260c14.9-102.2-55.8-197.2-158-212.2c-9.3-1.4-18.7-2-28.1-2
	c-98.6,4.8-168,87.6-171.7,186.2c-3,108.6,82.7,199,191.3,202c0,0,0.1,0,0.1,0c67.1,5.1,131.6-26.9,168-83.4l-78.4-45.8
	C538.1,456.2,503.3,475.4,466.5,473z M451.9,242.2c40.6-0.5,74.7,30.2,78.4,70.6H373.4C377.2,272.4,411.3,241.6,451.9,242.2z"/>
</svg>
